Coordinates
version=1
nRows=17
nColumns=38
inDegrees=no

Units are S.I. units (second, meters, Newtons, ...)
If the header above contains a line with 'inDegrees', this indicates whether rotational values are in degrees (yes) or radians (no).

endheader
time	pelvis_tilt	pelvis_list	pelvis_rotation	pelvis_tx	pelvis_ty	pelvis_tz	hip_flexion_r	hip_adduction_r	hip_rotation_r	knee_angle_r	ankle_angle_r	subtalar_angle_r	mtp_angle_r	hip_flexion_l	hip_adduction_l	hip_rotation_l	knee_angle_l	ankle_angle_l	subtalar_angle_l	mtp_angle_l	lumbar_extension	lumbar_bending	lumbar_rotation	arm_flex_r	arm_add_r	arm_rot_r	elbow_flex_r	pro_sup_r	wrist_flex_r	wrist_dev_r	arm_flex_l	arm_add_l	arm_rot_l	elbow_flex_l	pro_sup_l	wrist_flex_l	wrist_dev_l
0	-0.798149	1.40802	-0.702988	1.00553	1.91616	0.937285	0.0876613	0.110785	-0.269608	0.340625	-0.303994	0	0	0.0351583	-0.277079	-0.103228	1.19338	-0.463512	0	0	-0.179918	0.169656	-0.122816	-0.279485	-0.270994	-0.198955	0.796676	0.32741	0	0	-0.0130131	-0.224697	0.166989	0.659419	1.5708	0	0
0.01	-0.77657	1.41037	-0.727278	1.00428	1.90772	0.938593	0.071243	0.110924	-0.261292	0.330338	-0.300266	0	0	0.0681979	-0.272252	-0.0984244	1.23301	-0.423964	0	0	-0.182721	0.164931	-0.114796	-0.282856	-0.264804	-0.213925	0.798714	0.337295	0	0	-0.0145797	-0.218154	0.153608	0.64181	1.5708	0	0
0.02	-0.750449	1.41183	-0.756997	1.00303	1.89858	0.940018	0.0509461	0.111398	-0.255383	0.315934	-0.297639	0	0	0.0962046	-0.268668	-0.0996728	1.26152	-0.400281	0	0	-0.184387	0.160443	-0.103278	-0.290251	-0.258836	-0.230086	0.801168	0.34452	0	0	-0.0135738	-0.211224	0.146442	0.619822	1.5708	0	0
0.03	-0.718284	1.41457	-0.793278	1.00186	1.88945	0.941497	0.0301936	0.110153	-0.248346	0.299218	-0.29755	0	0	0.123054	-0.26117	-0.0999271	1.28076	-0.377148	0	0	-0.133833	0.184852	0.0689201	-0.451979	-0.202206	-0.418607	0.884528	0.335795	0	0	0.137455	-0.0831113	0.560337	0.372523	1.5708	0	0
0.04	-0.654701	1.41124	-0.86231	1.00042	1.88058	0.943277	0.00231544	0.108241	-0.24466	0.284857	-0.296916	0	0	0.138157	-0.256738	-0.107792	1.2934	-0.354506	0	0	-0.201328	0.144916	-0.106369	-0.277309	-0.257551	-0.217395	0.791693	0.347732	0	0	-0.0469775	-0.206476	0.0869117	0.625734	1.5708	0	0
0.05	-0.6016	1.41098	-0.919886	0.999139	1.87158	0.944896	-0.0201518	0.104159	-0.243721	0.27391	-0.294876	0	0	0.157153	-0.250941	-0.119033	1.2995	-0.342057	0	0	-0.207917	0.138022	-0.0977467	-0.281943	-0.251003	-0.232158	0.794448	0.358706	0	0	-0.0609959	-0.210441	0.0966712	0.641682	1.5708	0	0
0.06	-0.565249	1.41127	-0.961412	0.998025	1.86225	0.946163	-0.0426107	0.102237	-0.238408	0.256385	-0.297178	0	0	0.176452	-0.247844	-0.134808	1.30121	-0.321535	0	0	-0.215193	0.126302	-0.118365	-0.256257	-0.279067	-0.140388	0.773291	0.295108	0	0	-0.0961541	-0.210608	0.0221294	0.662545	1.5708	0	0
0.07	-0.509504	1.40857	-1.02238	0.996897	1.85323	0.947592	-0.0678277	0.0983953	-0.235207	0.24205	-0.292138	0	0	0.19043	-0.245351	-0.159951	1.29818	-0.304728	0	0	-0.223447	0.118208	-0.114236	-0.254977	-0.278097	-0.138284	0.771037	0.296211	0	0	-0.106977	-0.211506	0.0201435	0.66457	1.5708	0	0
0.08	-0.464038	1.40903	-1.06962	0.996057	1.84454	0.948514	-0.0891259	0.094885	-0.238178	0.220981	-0.266314	0	0	0.205357	-0.22914	-0.138236	1.28348	-0.283145	0	0	-0.227403	0.109982	-0.113711	-0.251779	-0.276769	-0.134989	0.765952	0.297332	0	0	-0.11703	-0.212456	0.0170972	0.665502	1.5708	0	0
0.09	-0.420657	1.40742	-1.11745	0.995055	1.83566	0.949404	-0.110183	0.0909622	-0.234546	0.209571	-0.265161	0	0	0.216829	-0.219194	-0.136018	1.26624	-0.263571	0	0	-0.233195	0.101607	-0.110485	-0.248083	-0.275321	-0.132145	0.760175	0.297789	0	0	-0.129083	-0.21595	0.0105729	0.669922	1.5708	0	0
0.1	-0.378012	1.40477	-1.16418	0.994104	1.82673	0.950185	-0.133035	0.0875073	-0.229944	0.196376	-0.2643	0	0	0.226427	-0.210982	-0.139916	1.24513	-0.246295	0	0	-0.240055	0.0933943	-0.107308	-0.24288	-0.270893	-0.140445	0.755264	0.287554	0	0	-0.141002	-0.21942	0.00447469	0.676327	1.5708	0	0
0.11	-0.32572	1.39493	-1.22207	0.99314	1.81762	0.951264	-0.166533	0.0849624	-0.224138	0.178108	-0.263982	0	0	0.228414	-0.214344	-0.187858	1.22521	-0.231653	0	0	-0.254236	0.0862846	-0.101697	-0.244945	-0.270265	-0.136978	0.75747	0.308458	0	0	-0.152381	-0.223575	0.00341118	0.685151	1.5708	0	0
0.12	-0.288963	1.39289	-1.26188	0.992399	1.80882	0.951797	-0.185793	0.0803693	-0.223316	0.17091	-0.257172	0	0	0.23707	-0.208566	-0.206376	1.19478	-0.223495	0	0	-0.258136	0.0812617	-0.0967813	-0.247139	-0.265688	-0.149633	0.759911	0.318337	0	0	-0.149942	-0.228607	0.0220116	0.670195	1.56673	0	0
0.13	-0.25997	1.3862	-1.29496	0.991951	1.79954	0.95216	-0.212414	0.0780604	-0.219302	0.156266	-0.256817	0	0	0.23968	-0.203463	-0.222725	1.16227	-0.20878	0	0	-0.266894	0.072968	-0.0926596	-0.240795	-0.264145	-0.151164	0.752917	0.29549	0	0	-0.170717	-0.230447	0.00700324	0.695646	1.56502	0	0
0.14	-0.23158	1.37941	-1.32653	0.99149	1.79055	0.952528	-0.237846	0.0754791	-0.215027	0.143307	-0.256915	0	0	0.240133	-0.197799	-0.240444	1.12166	-0.198615	0	0	-0.276505	0.0671261	-0.0936058	-0.237522	-0.267441	-0.134794	0.751157	0.303547	0	0	-0.184288	-0.23086	-0.00379448	0.705476	1.56522	0	0
0.15	-0.206156	1.37222	-1.35449	0.991075	1.78172	0.952803	-0.263599	0.0734391	-0.209687	0.12945	-0.259223	0	0	0.238411	-0.191624	-0.258207	1.07387	-0.193354	0	0	-0.286319	0.0626741	-0.0846792	-0.239147	-0.25277	-0.178105	0.754878	0.316677	0	0	-0.186702	-0.236919	0.0136294	0.707952	1.54279	0	0
0.16	-0.18412	1.36487	-1.37834	0.990781	1.77302	0.952913	-0.287723	0.0714582	-0.206798	0.119365	-0.259144	0	0	0.234733	-0.18449	-0.274061	1.01886	-0.197074	0	0	-0.298676	0.0559774	-0.0934973	-0.22766	-0.271888	-0.113903	0.749468	0.283215	0	0	-0.207834	-0.236693	-0.0129226	0.727136	1.54676	0	0
